<svg width="176px" height="50px" viewBox="30 15 176 50" version="1.1" xmlns="http://www.w3.org/2000/svg" xmlns:xlink="http://www.w3.org/1999/xlink">
    <!-- Generator: Sketch 3.7.1 (28215) - http://www.bohemiancoding.com/sketch -->
    <desc>Created with Sketch.</desc>
    <defs></defs>
    <g id="NETFLIX-logo" stroke="none" stroke-width="1" fill="none" fill-rule="evenodd" transform="translate(30.780944, 15.478353)">
        <path d="M148.931263,44.9941542 C151.355632,45.2290061 153.776312,45.4823503 156.193302,45.7449407 L161.52913,32.5396047 L166.601118,46.9617326 C169.204456,47.2890459 171.804104,47.6311531 174.398216,47.9899033 L165.507015,22.6980142 L174.401907,0.684806052 L166.868648,0.684806052 L166.791156,0.792061266 L161.986697,12.6844455 L157.768958,0.684806052 L150.331641,0.684806052 L158.010657,22.5241868 L148.931263,44.9941542 L148.931263,44.9941542 Z" id="path3015" fill="#E82C2A"></path>
        <path d="M143.305027,44.4773024 L143.305027,0.685738062 L135.869555,0.685738062 L135.869555,43.8633588 C138.351121,44.0538292 140.830841,44.2609427 143.305027,44.4773024" id="path3019" fill="#E82C2A"></path>
        <path d="M87.4565047,42.0276229 C89.4638977,42.0276229 91.4676007,42.0424167 93.4694586,42.0591337 L93.4694586,25.9708516 L102.401251,25.9708516 L102.401251,19.1194625 L93.4694586,19.1194625 L93.4694586,7.54329621 L103.755503,7.54329621 L103.755503,0.684510175 L86.0044658,0.684510175 L86.0044658,42.0332446 C86.4878638,42.0332446 86.9712617,42.027327 87.4565047,42.027327" id="path3023" fill="#E82C2A"></path>
        <path d="M64.3722231,42.4463029 C66.8482538,42.3575399 69.3279746,42.2835708 71.8113854,42.2225463 L71.8113854,7.54397673 L78.7597697,7.54397673 L78.7597697,0.685190691 L57.4219938,0.685190691 L57.4219938,7.54397673 L64.3722231,7.54397673 L64.3722231,42.4463029 L64.3722231,42.4463029 Z" id="path3035" fill="#E82C2A"></path>
        <path d="M7.5120927,47.064742 L7.5120927,20.9739865 L16.3147325,46.0106821 C19.021392,45.7055595 21.7335866,45.4189292 24.4513163,45.148942 L24.4513163,0.686107908 L17.318429,0.686107908 L17.318429,27.7107235 L7.81836774,0.686107908 L7.5120927,0.686107908 L0.379205396,0.686107908 L0.379205396,48.0023005 L0.423486125,48.0023005 C2.7814349,47.6749872 5.14491877,47.3643169 7.5120927,47.064742" id="path3039" fill="#E82C2A"></path>
        <path d="M50.2542428,7.54341456 L50.2542428,0.684628526 L32.5013608,0.684628526 L32.5013608,37.5397393 L32.5013608,44.4003745 L32.5013608,44.4062921 C38.3925427,43.8959052 44.3040199,43.4687335 50.2394825,43.1210787 L50.2394825,43.1151612 L50.2394825,41.1383366 L50.2394825,36.2563751 C46.8077261,36.4560918 43.3833498,36.6872452 39.9663536,36.9424387 L39.9663536,25.9728192 L48.8981455,25.9728192 L48.8981455,19.1177316 L39.9663536,19.1177316 L39.9663536,7.54341456 L50.2542428,7.54341456 L50.2542428,7.54341456 Z" id="path3051" fill="#E82C2A"></path>
        <path d="M118.491214,35.9288695 L118.491214,0.684436206 L111.024376,0.684436206 L111.024376,35.6052546 L111.024376,42.4640407 L111.024376,42.4714376 C116.963529,42.6896465 122.880541,42.9947691 128.777258,43.3775592 L128.777258,43.3686829 L128.777258,41.153308 L128.777258,36.5098969 C125.354727,36.2879895 121.926661,36.0956699 118.491214,35.9292393" id="path3055" fill="#E82C2A"></path>
    </g>
</svg>
