<svg width="176" height="50" viewBox="30 15 176 50" xmlns="http://www.w3.org/2000/svg"><g fill="#E82C2A" fill-rule="evenodd"><path d="M179.712 60.473a626.7 626.7 0 0 1 7.262.75l5.336-13.205 5.072 14.422c2.603.327 5.203.67 7.797 1.028l-8.891-25.292 8.895-22.013h-7.533l-.078.107-4.804 11.893-4.218-12h-7.437l7.679 21.84-9.08 22.47zM174.086 59.956V16.164h-7.436v43.178c2.482.19 4.962.397 7.436.614M118.237 57.506c2.008 0 4.012.015 6.013.031V41.45h8.932v-6.851h-8.932V23.022h10.286v-6.86h-17.75v41.35c.483 0 .966-.006 1.451-.006M95.153 57.925c2.476-.09 4.956-.163 7.44-.224V23.022h6.948v-6.858H88.203v6.858h6.95v34.903zM38.293 62.543v-26.09l8.803 25.036c2.706-.305 5.419-.592 8.136-.862V16.164H48.1V43.19l-9.5-27.025H31.16v47.317h.044c2.358-.328 4.722-.638 7.089-.938M81.035 23.022v-6.859H63.282V59.885a637.05 637.05 0 0 1 17.738-1.286v-6.864c-3.431.2-6.856.43-10.273.686V41.45h8.932v-6.855h-8.932V23.022h10.288zM149.272 51.407V16.163h-7.467V57.95c5.94.218 11.856.523 17.753.906v-6.868c-3.422-.222-6.85-.414-10.286-.58"/></g></svg>